<mxfile host="app.diagrams.net" modified="2024-05-28T12:17:24.265Z" agent="Mozilla/5.0 (Windows NT 10.0; Win64; x64) AppleWebKit/537.36 (KHTML, like Gecko) Chrome/125.0.0.0 Safari/537.36" version="24.4.6" etag="n7rxMqQoIum1Lt7bjS6f" type="github">
  <diagram name="Page-1" id="zjjqU-ouRbZWPWys531M">
    <mxGraphModel>
      <root>
        <mxCell id="0" />
        <mxCell id="1" parent="0" />
      </root>
    </mxGraphModel>
  </diagram>
</mxfile>
